HIERARCHY
ROOT Hips
{
	OFFSET 0.000000 0.000000 0.000000 
	CHANNELS 6 Xposition Yposition Zposition Yrotation Zrotation Xrotation 
	JOINT Lumbar
	{
		OFFSET 0.000000 0.000000 0.000000 
		CHANNELS 3 Zrotation Xrotation Yrotation
		JOINT Neck
		{
			OFFSET 0.000000 0.445665 0.000000 
			CHANNELS 3 Zrotation Xrotation Yrotation
			End Site
			{
				OFFSET 0.000000 0.227535 0.000000 
			}
		}
		JOINT RightShoulder
		{
			OFFSET 0.019635 0.377685 0.194865 
			CHANNELS 3 Zrotation Xrotation Yrotation
			JOINT RightElbow
			{
				OFFSET 0.000000 -0.243375 0.000000 
				CHANNELS 2 Zrotation Yrotation
				JOINT RightWrist
				{
					OFFSET 0.000000 -0.264825 0.000000 
					CHANNELS 2 Zrotation Xrotation
					End Site
					{
						OFFSET 0.006600 -0.176220 0.000990 
					}
				}
			}
		}
		JOINT LeftShoulder
		{
			OFFSET 0.019635 0.377685 -0.194865 
			CHANNELS 3 Zrotation Xrotation Yrotation
			JOINT LeftElbow
			{
				OFFSET 0.000000 -0.243375 0.000000 
				CHANNELS 2 Zrotation Yrotation
				JOINT LeftWrist
				{
					OFFSET 0.000000 -0.264825 0.000000 
					CHANNELS 2 Zrotation Xrotation
					End Site
					{
						OFFSET 0.006600 -0.176220 -0.000990 
					}
				}
			}
		}
	}
	JOINT RightHip
	{
		OFFSET 0.052140 -0.069960 0.075570 
		CHANNELS 3 Zrotation Xrotation Yrotation
		JOINT RightKnee
		{
			OFFSET 0.000000 -0.402270 0.000000 
			CHANNELS 1 Zrotation
			JOINT RightAnkle
			{
				OFFSET 0.000000 -0.404085 0.000000 
				CHANNELS 3 Zrotation Xrotation Yrotation
				End Site
				{
					OFFSET 0.204105 -0.089430 0.008415 
				}
			}
		}
	}
	JOINT LeftHip
	{
		OFFSET 0.052140 -0.069960 -0.075570 
		CHANNELS 3 Zrotation Xrotation Yrotation
		JOINT LeftKnee
		{
			OFFSET 0.000000 -0.402270 0.000000 
			CHANNELS 1 Zrotation
			JOINT LeftAnkle
			{
				OFFSET 0.000000 -0.404085 0.000000 
				CHANNELS 3 Zrotation Xrotation Yrotation
				End Site
				{
					OFFSET 0.204105 -0.089430 -0.008415 
				}
			}
		}
	}
}
MOTION
Frames: 31
Frame Time: 0.02
0.00216 0.93411 0.26303 154.54445 0 -0.65738 -13.72369 8.78093 2.96307 -13.24389 1.27483 3.87466 23.68196 -19.46447 5.03177 14.05166 85.4037 -7.25262 -6.47685 15.7091 16.5852 -21.91734 15.64008 -80.78616 -7.94363 2.23503 22.2907 -11.2949 -15.98155 -32.78693 -7.89828 -1.82588 -2.80532 1.73554 -8.34183 12.05722 -9.67576 7.77502 4.23975 5.1912
0.00464 0.93397 0.26577 154.68641 0 -0.58984 -14.7797 9.37596 3.01272 -12.61027 1.21947 3.88064 23.4266 -19.37842 5.16142 14.11647 85.45245 -7.49144 -6.63221 15.28997 16.69797 -22.8705 16.03842 -80.90903 -8.19263 2.35529 22.24275 -11.40382 -16.08922 -32.39012 -8.07288 -1.82791 -2.83771 1.78879 -8.4887 12.17754 -9.38166 7.50871 4.03484 4.91287
0.00704 0.93385 0.26856 154.76543 0 -0.5372 -15.84439 9.97747 3.06441 -12.06582 1.11236 4.02727 23.20866 -19.30225 5.31447 14.1849 85.5623 -7.72494 -6.76839 15.02212 16.75618 -23.80254 16.54729 -81.08908 -8.51367 2.53533 22.20473 -11.60117 -16.53596 -32.01977 -8.29519 -1.79939 -2.61415 1.8373 -8.62669 12.33185 -9.08553 7.23445 3.84337 4.65634
0.00944 0.9337 0.27129 154.87219 0 -0.47503 -16.89052 10.56859 3.1212 -11.50086 1.03176 4.10705 22.98393 -19.22286 5.45305 14.24524 85.63909 -7.95559 -6.90789 14.70319 16.83059 -24.72839 17.00359 -81.2426 -8.80218 2.68985 22.16272 -11.76169 -16.82941 -31.64611 -8.48609 -1.78388 -2.5013 1.88702 -8.77029 12.46505 -8.79545 6.96846 3.65095 4.39624
0.01204 0.9336 0.27421 154.98231 0 -0.42356 -18.00281 11.19011 3.1532 -10.85103 0.94215 4.19805 22.71862 -19.14291 5.62599 14.3358 85.74015 -8.21019 -7.07224 14.31062 16.93786 -25.72621 17.46997 -81.39412 -9.08913 2.83804 22.11708 -11.90787 -17.12078 -31.23218 -8.71673 -1.77239 -2.4137 1.93886 -8.90829 12.62323 -8.47866 6.6807 3.43533 4.10755
0.01418 0.93342 0.27672 155.07093 0 -0.35411 -18.97633 11.75039 3.23649 -10.3995 0.85755 4.29927 22.5456 -19.06467 5.72468 14.36407 85.80476 -8.41417 -7.17995 14.10675 16.96525 -26.5672 17.94132 -81.56773 -9.39668 3.01284 22.08155 -12.10422 -17.49563 -30.90965 -8.87658 -1.74526 -2.21337 1.98571 -9.05497 12.73653 -8.21912 6.43732 3.27168 3.88451
0.01512 0.93305 0.27817 155.11135 0 -0.22634 -19.58034 12.13814 3.46795 -10.47131 0.79976 4.39722 22.62031 -18.98801 5.62904 14.20745 85.74987 -8.46468 -7.12995 14.38994 16.78373 -26.97881 18.40201 -81.75384 -9.74382 3.2532 22.07591 -12.42681 -18.02905 -30.83439 -8.82717 -1.6812 -1.74874 2.02209 -9.23365 12.72384 -8.11643 6.31715 3.24951 3.8348
0.01559 0.93262 0.2792 155.13307 0 -0.08096 -20.0408 12.46444 3.74964 -10.73992 0.74787 4.50006 22.78587 -18.91192 5.453 13.9896 85.65673 -8.46654 -7.0243 14.85695 16.52509 -27.23301 18.86342 -81.96589 -10.10929 3.51698 22.07958 -12.79527 -18.63269 -30.85058 -8.70535 -1.60269 -1.18201 2.05353 -9.42019 12.66351 -8.07252 6.2425 3.27922 3.85116
0.01624 0.93222 0.2804 155.16613 0 0.05298 -20.55645 12.82025 4.0037 -10.92029 0.69304 4.59919 22.90823 -18.83568 5.29989 13.80716 85.58315 -8.50042 -6.94773 15.23804 16.30255 -27.55922 19.32275 -82.19002 -10.46622 3.76573 22.07632 -13.13672 -19.19693 -30.82434 -8.61828 -1.53148 -0.67181 2.08612 -9.59921 12.62087 -8.00344 6.14804 3.28446 3.83913
0.017 0.93178 0.28171 155.18503 0 0.20087 -21.11577 13.16977 4.27809 -11.09945 0.63906 4.71029 23.04018 -18.76047 5.203 13.59319 85.50198 -8.49343 -6.85473 15.63539 16.07111 -27.88199 19.79329 -82.31913 -10.82638 4.03532 22.0846 -13.50715 -19.80462 -30.80208 -8.52532 -1.45591 -0.10988 2.12308 -9.79459 12.59637 -7.92739 6.04929 3.29362 3.82072
0.01744 0.93142 0.28268 155.22976 0 0.32416 -21.54881 13.51747 4.52205 -11.32577 0.58352 4.79481 23.17303 -18.68179 4.97253 13.4299 85.42747 -8.5587 -6.78274 16.03939 15.84377 -28.1758 20.23926 -82.64684 -11.1834 4.26602 22.07114 -13.82707 -20.33409 -30.79361 -8.42651 -1.38666 0.36509 2.14987 -9.95788 12.52206 -7.88023 5.97076 3.30713 3.83125
0.01717 0.93135 0.28286 155.35115 0 0.37459 -21.67724 13.87725 4.66959 -11.64179 0.53805 4.81267 23.28758 -18.60441 4.36621 13.42478 85.37482 -8.84739 -6.78414 16.42624 15.62022 -28.41931 20.61617 -83.55722 -11.52533 4.38564 21.99368 -13.99523 -20.62859 -30.79532 -8.33158 -1.33595 0.57543 2.14958 -10.03082 12.32412 -7.89547 5.93399 3.31701 3.90337
0.01661 0.93137 0.28272 155.49933 0 0.39988 -21.68172 14.23688 4.78487 -11.99661 0.48802 4.8015 23.39932 -18.52143 3.63288 13.47208 85.33171 -9.20843 -6.80815 16.81101 15.40876 -28.6408 20.96789 -84.65871 -11.86334 4.46461 21.89439 -14.11086 -20.84069 -30.80884 -8.23261 -1.29266 0.69361 2.13926 -10.07125 12.07721 -7.9383 5.91662 3.32995 4.00253
0.01617 0.93135 0.28272 155.63507 0 0.43715 -21.73714 14.59521 4.91485 -12.32819 0.43004 4.79766 23.51137 -18.43364 2.97524 13.49334 85.28681 -9.52831 -6.82099 17.1896 15.20927 -28.87834 21.33139 -85.64582 -12.20416 4.56062 21.80607 -14.2506 -21.08985 -30.8202 -8.13369 -1.24781 0.8521 2.13374 -10.12642 11.85097 -7.97056 5.89234 3.34343 4.09068
0.01575 0.93133 0.28275 155.77133 0 0.47259 -21.81069 14.95727 5.04603 -12.69034 0.41486 4.81861 23.63121 -18.37673 2.23964 13.52216 85.2268 -9.88081 -6.83651 17.60433 14.93301 -29.08508 21.69391 -86.75012 -12.54176 4.66369 21.7133 -14.39044 -21.3429 -30.82047 -8.0397 -1.19504 1.02 2.12716 -10.18184 11.62942 -7.99675 5.86155 3.35074 4.17606
0.01523 0.93132 0.28263 155.91301 0 0.50578 -21.81843 15.3122 5.1669 -12.99551 0.30902 4.78123 23.73234 -18.25442 1.63642 13.54805 85.20487 -10.18396 -6.85147 17.94148 14.82095 -29.3525 22.05204 -87.65533 -12.88434 4.7419 21.62492 -14.51772 -21.56783 -30.8464 -7.93555 -1.1604 1.14623 2.12029 -10.22911 11.38753 -8.04111 5.84839 3.37075 4.27238
0.01453 0.93129 0.28217 156.06401 0 0.53773 -21.67941 15.6486 5.2625 -13.13213 -0.04264 4.5872 23.78746 -17.95077 1.43748 13.55697 85.25114 -10.32623 -6.8693 18.05823 15.15604 -29.79549 22.40759 -87.96385 -13.24628 4.76272 21.55041 -14.61621 -21.72939 -30.93163 -7.80368 -1.17687 1.16842 2.11684 -10.26011 11.09814 -8.13082 5.87851 3.42663 4.39554
0.01376 0.93126 0.28156 156.21931 0 0.56844 -21.47836 15.97773 5.34934 -13.20935 -0.48578 4.33604 23.82257 -17.58206 1.37491 13.56076 85.34074 -10.41753 -6.88452 18.09706 15.65676 -30.30007 22.75887 -88.06526 -13.61251 4.75953 21.48178 -14.70477 -21.86577 -31.04339 -7.66223 -1.21093 1.15314 2.1132 -10.2843 10.79096 -8.23724 5.92565 3.49468 4.52791
0.01301 0.93122 0.28103 156.37231 0 0.60039 -21.30325 16.31 5.4432 -13.31395 -0.8896 4.11265 23.86293 -17.24433 1.24553 13.56457 85.4351 -10.53739 -6.89428 18.17527 16.08448 -30.77621 23.10997 -88.26146 -13.9735 4.76635 21.41266 -14.80241 -22.01773 -31.14828 -7.52592 -1.23508 1.16242 2.10845 -10.31273 10.49419 -8.33437 5.96512 3.55584 4.65354
0.01228 0.93121 0.28045 156.52828 0 0.62858 -21.13287 16.64369 5.52367 -13.41857 -1.28507 3.88022 23.91896 -16.8998 1.13291 13.57973 85.432 -10.6384 -6.93153 18.23767 16.50385 -31.2556 23.46947 -88.46162 -14.3478 4.77566 21.33322 -14.87965 -22.15122 -31.23193 -7.38602 -1.26739 1.13803 2.1082 -10.33524 10.18538 -8.43948 6.00478 3.62271 4.79074
0.01149 0.93115 0.27994 156.67799 0 0.66467 -20.94 16.97175 5.6297 -13.50829 -1.71832 3.65394 23.93828 -16.55485 1.01841 13.5696 85.63522 -10.76381 -6.91227 18.31336 16.97872 -31.74034 23.81041 -88.60173 -14.69603 4.7745 21.27741 -14.99683 -22.31598 -31.3657 -7.25147 -1.287 1.17445 2.0989 -10.36882 9.89866 -8.53182 6.04814 3.68073 4.90593
0.01053 0.93098 0.27967 156.81554 0 0.7225 -20.69716 17.29398 5.81419 -13.5727 -2.24409 3.45427 23.85548 -16.21819 0.87533 13.48869 86.45698 -10.98475 -6.72314 18.45429 17.57527 -32.24949 24.1041 -88.62661 -14.96546 4.75157 21.28141 -15.23434 -22.59338 -31.633 -7.13351 -1.26533 1.40225 2.06267 -10.43529 9.67255 -8.58236 6.09457 3.70967 4.95541
0.00951 0.93077 0.27946 156.94535 0 0.78842 -20.43509 17.60923 6.02374 -13.62373 -2.80241 3.26376 23.73753 -15.88478 0.72479 13.38267 87.47413 -11.22885 -6.47971 18.60954 18.21993 -32.75757 24.37855 -88.59708 -15.20909 4.71896 21.30967 -15.51109 -22.89999 -31.94913 -7.02147 -1.23059 1.69037 2.01777 -10.51305 9.4705 -8.61976 6.14444 3.72954 4.9827
0.00853 0.93057 0.27922 157.07449 0 0.85112 -20.18439 17.92253 6.21829 -13.67974 -3.33925 3.07201 23.63936 -15.55394 0.57134 13.28928 88.36228 -11.45157 -6.27067 18.75194 18.83703 -33.24987 24.66033 -88.59176 -15.46898 4.69011 21.32978 -15.7653 -23.18015 -32.24213 -6.90702 -1.20306 1.9419 1.97817 -10.58548 9.2607 -8.66468 6.19477 3.75475 5.02189
0.00749 0.93038 0.279 157.22142 0 0.91217 -19.92011 18.25747 6.42801 -13.73818 -3.90876 2.86575 23.52431 -15.20302 0.44774 13.19052 89.42002 -11.7179 -6.02099 18.91821 19.48522 -33.81231 24.94903 -88.58225 -15.71198 4.66293 21.33866 -16.03957 -23.51408 -32.54128 -6.79074 -1.17077 2.23063 1.93278 -10.65894 9.03649 -8.70378 6.23775 3.77548 5.0541
0.00655 0.93018 0.27875 157.32944 0 0.97816 -19.68067 18.54542 6.61192 -13.78938 -4.41521 2.69283 23.43648 -14.89646 0.26024 13.09715 90.17244 -11.90017 -5.84252 19.03943 20.07633 -34.22843 25.21743 -88.57031 -15.98132 4.6305 21.37573 -16.28078 -23.74443 -32.83733 -6.68019 -1.14506 2.45696 1.89743 -10.73249 8.84865 -8.7515 6.29589 3.80295 5.09501
0.00591 0.92994 0.27845 157.33133 0 1.0598 -19.51256 18.70823 6.72085 -13.82209 -4.7523 2.60837 23.43105 -14.70409 -0.11783 13.02402 90.01575 -11.83954 -5.87912 19.0309 20.51075 -34.23324 25.44618 -88.5734 -16.35268 4.58442 21.49225 -16.4274 -23.67191 -33.12606 -6.58092 -1.14077 2.49435 1.89178 -10.80833 8.75198 -8.82746 6.40142 3.85355 5.16909
0.00538 0.9297 0.27813 157.29437 0 1.14541 -19.37088 18.8234 6.80251 -13.84859 -5.02195 2.55771 23.45456 -14.55799 -0.55767 12.9574 89.54821 -11.69472 -5.98834 18.97726 20.88279 -34.09185 25.65301 -88.57536 -16.74717 4.53386 21.63493 -16.53827 -23.49601 -33.40744 -6.4879 -1.14345 2.46742 1.89659 -10.88303 8.69181 -8.91222 6.52087 3.91074 5.25196
0.0048 0.92947 0.2778 157.2756 0 1.22662 -19.21861 18.95857 6.89516 -13.87943 -5.31367 2.49276 23.46582 -14.39594 -0.95942 12.88829 89.23474 -11.59211 -6.06092 18.94594 21.27429 -34.0221 25.86218 -88.57334 -17.11596 4.48644 21.76058 -16.6614 -23.37397 -33.68337 -6.39406 -1.14283 2.47133 1.89669 -10.95513 8.61717 -8.99208 6.62959 3.96334 5.32829
0.00418 0.9292 0.27751 157.25444 0 1.31907 -19.05931 19.10074 6.99473 -13.90343 -5.64285 2.4235 23.4721 -14.21249 -1.40351 12.81615 88.87418 -11.47367 -6.14683 18.90749 21.70535 -33.9307 26.10278 -88.58828 -17.54781 4.43383 21.90851 -16.8027 -23.2241 -33.99795 -6.29167 -1.14238 2.47047 1.89621 -11.04077 8.5343 -9.07536 6.75676 4.02242 5.41452
0.00369 0.92902 0.27715 157.22895 0 1.38897 -18.92158 19.21675 7.07292 -13.9403 -5.8775 2.37123 23.49601 -14.08464 -1.77415 12.75242 88.53519 -11.36783 -6.22307 18.87285 22.03823 -33.8493 26.27304 -88.56833 -17.85432 4.3913 22.01629 -16.8972 -23.10701 -34.22987 -6.20877 -1.14333 2.46359 1.89963 -11.09782 8.47709 -9.15369 6.8491 4.06965 5.4826
